# xmcd CD database file
#
# Track frame offsets:
#	150
#	21605
#	37710
#
# Disc length: 786 seconds
#
# Revision: 1
# Processed by: cddbd v1.5PL3 Copyright (c) Steve Scherf et al.
# Submitted via: CDex 1.51
#
DISCID=1b031003
DTITLE=牧野留姫（折笠富美子）＆レナモン（今井由香） - デジモンテイマーズ　ベストテイマーズ?　牧野留姫＆レナモン
DYEAR=2001
DGENRE=Anime
TTITLE0=Moon Fighter
TTITLE1=Flaming ice
TTITLE2=Last Piece　−　強くなりたくて　−
EXTD=YEAR: 2001
EXTT0=
EXTT1=
EXTT2=
PLAYORDER=
